<svg width="25" height="20" viewBox="0 0 25 20" fill="none" xmlns="http://www.w3.org/2000/svg">
<path d="M12.5 0.125C5.625 0.125 0.125 5.66797 0.125 12.5C0.125 14.7773 0.726562 16.9258 1.80078 18.7305C2.01562 19.1602 2.48828 19.375 2.96094 19.375H21.9961C22.4688 19.375 22.9414 19.1602 23.1562 18.7305C24.2305 16.9258 24.875 14.7773 24.875 12.5C24.875 5.66797 19.332 0.125 12.5 0.125ZM12.5 2.875C13.1016 2.875 13.6172 3.34766 13.7891 3.90625C13.7461 3.99219 13.6602 4.07812 13.6172 4.20703L13.2305 5.36719C13.0156 5.53906 12.7578 5.625 12.5 5.625C11.7266 5.625 11.125 5.02344 11.125 4.25C11.125 3.51953 11.7266 2.875 12.5 2.875ZM4.25 15.25C3.47656 15.25 2.875 14.6484 2.875 13.875C2.875 13.1445 3.47656 12.5 4.25 12.5C4.98047 12.5 5.625 13.1445 5.625 13.875C5.625 14.6484 4.98047 15.25 4.25 15.25ZM6.3125 8.375C5.53906 8.375 4.9375 7.77344 4.9375 7C4.9375 6.26953 5.53906 5.625 6.3125 5.625C7.04297 5.625 7.6875 6.26953 7.6875 7C7.6875 7.77344 7.04297 8.375 6.3125 8.375ZM16.8828 5.28125L14.2617 13.1875C14.8633 13.7031 15.25 14.4336 15.25 15.25C15.25 15.7656 15.0781 16.2383 14.8633 16.625H10.0938C9.87891 16.2383 9.75 15.7656 9.75 15.25C9.75 13.832 10.8672 12.6289 12.2852 12.543L14.9492 4.63672C15.1211 4.07812 15.6797 3.77734 16.2383 3.99219C16.7969 4.16406 17.0547 4.76562 16.8828 5.28125ZM17.5273 7.73047L18.1719 5.75391C18.3438 5.66797 18.5156 5.66797 18.6875 5.66797C19.418 5.66797 20.0625 6.26953 20.0625 7.04297C20.0625 7.77344 19.418 8.41797 18.6875 8.41797C18.1719 8.375 17.7852 8.11719 17.5273 7.73047ZM20.75 15.25C19.9766 15.25 19.375 14.6484 19.375 13.875C19.375 13.1445 19.9766 12.5 20.75 12.5C21.4805 12.5 22.125 13.1445 22.125 13.875C22.125 14.6484 21.4805 15.25 20.75 15.25Z" fill="#8181A5"/>
</svg>
