<svg width="22" height="20" viewBox="0 0 22 20" fill="none" xmlns="http://www.w3.org/2000/svg">
<path d="M21.5703 7.98828L19.6367 6.05469C19.3789 5.79688 19.0352 5.66797 18.6484 5.66797H16.5V2.1875C16.5 1.07031 15.5547 0.125 14.4375 0.125H7.5625C6.40234 0.125 5.5 1.07031 5.5 2.1875V5.625H3.30859C2.92188 5.625 2.57812 5.79688 2.32031 6.05469L0.386719 7.98828C0.128906 8.24609 0 8.58984 0 8.97656V12.5H5.5V11.8125C5.5 11.4688 5.80078 11.125 6.1875 11.125H7.5625C7.90625 11.125 8.25 11.4688 8.25 11.8125V12.5H13.75V11.8125C13.75 11.4688 14.0508 11.125 14.4375 11.125H15.8125C16.1562 11.125 16.5 11.4688 16.5 11.8125V12.5H22V8.97656C22 8.58984 21.8281 8.24609 21.5703 7.98828ZM13.75 5.625H8.25V2.875H13.75V5.625ZM16.5 14.5625C16.5 14.9492 16.1562 15.25 15.8125 15.25H14.4375C14.0508 15.25 13.75 14.9492 13.75 14.5625V13.875H8.25V14.5625C8.25 14.9492 7.90625 15.25 7.5625 15.25H6.1875C5.80078 15.25 5.5 14.9492 5.5 14.5625V13.875H0V18C0 18.7734 0.601562 19.375 1.375 19.375H20.625C21.3555 19.375 22 18.7734 22 18V13.875H16.5V14.5625Z" fill="#8181A5"/>
</svg>
