<svg width="20" height="23" viewBox="0 0 20 23" fill="none" xmlns="http://www.w3.org/2000/svg">
<path d="M17.5625 0.75H2.4375C1.32031 0.75 0.375 1.73828 0.375 2.8125V20.6875C0.375 21.8047 1.32031 22.75 2.4375 22.75H17.5625C18.6367 22.75 19.625 21.8047 19.625 20.6875V2.8125C19.625 1.73828 18.6367 0.75 17.5625 0.75ZM5.875 19.4844C5.875 19.7422 5.57422 20 5.31641 20H3.64062C3.38281 20 3.125 19.7422 3.125 19.4844V17.8086C3.125 17.5508 3.38281 17.25 3.64062 17.25H5.31641C5.57422 17.25 5.875 17.5508 5.875 17.8086V19.4844ZM5.875 13.9844C5.875 14.2422 5.57422 14.5 5.31641 14.5H3.64062C3.38281 14.5 3.125 14.2422 3.125 13.9844V12.3086C3.125 12.0508 3.38281 11.75 3.64062 11.75H5.31641C5.57422 11.75 5.875 12.0508 5.875 12.3086V13.9844ZM11.375 19.4844C11.375 19.7422 11.0742 20 10.8164 20H9.14062C8.88281 20 8.625 19.7422 8.625 19.4844V17.8086C8.625 17.5508 8.88281 17.25 9.14062 17.25H10.8164C11.0742 17.25 11.375 17.5508 11.375 17.8086V19.4844ZM11.375 13.9844C11.375 14.2422 11.0742 14.5 10.8164 14.5H9.14062C8.88281 14.5 8.625 14.2422 8.625 13.9844V12.3086C8.625 12.0508 8.88281 11.75 9.14062 11.75H10.8164C11.0742 11.75 11.375 12.0508 11.375 12.3086V13.9844ZM16.875 19.4844C16.875 19.7422 16.5742 20 16.3164 20H14.6406C14.3828 20 14.125 19.7422 14.125 19.4844V12.3086C14.125 12.0508 14.3828 11.75 14.6406 11.75H16.3164C16.5742 11.75 16.875 12.0508 16.875 12.3086V19.4844ZM16.875 8.48438C16.875 8.74219 16.5742 9 16.3164 9H3.64062C3.38281 9 3.125 8.74219 3.125 8.48438V4.05859C3.125 3.80078 3.38281 3.5 3.64062 3.5H16.3164C16.5742 3.5 16.875 3.80078 16.875 4.05859V8.48438Z" fill="#8181A5"/>
</svg>
