<svg width="17" height="23" viewBox="0 0 17 23" fill="none" xmlns="http://www.w3.org/2000/svg">
<path d="M14.6875 3.5H11.25C11.25 1.99609 10.0039 0.75 8.5 0.75C6.95312 0.75 5.75 1.99609 5.75 3.5H2.3125C1.15234 3.5 0.25 4.44531 0.25 5.5625V20.6875C0.25 21.8477 1.15234 22.75 2.3125 22.75H14.6875C15.8047 22.75 16.75 21.8477 16.75 20.6875V5.5625C16.75 4.44531 15.8047 3.5 14.6875 3.5ZM8.5 2.46875C9.05859 2.46875 9.53125 2.94141 9.53125 3.5C9.53125 4.10156 9.05859 4.53125 8.5 4.53125C7.89844 4.53125 7.46875 4.10156 7.46875 3.5C7.46875 2.94141 7.89844 2.46875 8.5 2.46875ZM13.6992 12.4375L7.55469 18.5391C7.33984 18.7539 6.99609 18.7539 6.82422 18.5391L3.25781 14.9727C3.04297 14.7578 3.08594 14.4141 3.25781 14.2422L4.50391 12.9961C4.67578 12.8242 5.01953 12.8242 5.23438 13.0391L7.21094 15.0156L11.7656 10.5039C11.9375 10.2891 12.2812 10.2891 12.4961 10.5039L13.6992 11.707C13.9141 11.9219 13.8711 12.2656 13.6992 12.4375Z" fill="#5E81F4"/>
</svg>
