<svg width="23" height="26" viewBox="0 0 23 26" fill="none" xmlns="http://www.w3.org/2000/svg">
<path d="M3.5999 6C2.75121 6 1.93728 6.33714 1.33716 6.93726C0.737044 7.53737 0.399902 8.35131 0.399902 9.2V22C0.399902 22.8487 0.737044 23.6626 1.33716 24.2627C1.93728 24.8629 2.75121 25.2 3.5999 25.2H13.1999C14.0486 25.2 14.8625 24.8629 15.4626 24.2627C16.0628 23.6626 16.3999 22.8487 16.3999 22V13.0624C16.3997 12.2138 16.0625 11.4 15.4623 10.8L11.5999 6.9376C10.9999 6.33744 10.1861 6.00018 9.3375 6H3.5999Z" fill="#8181A5"/>
<path d="M21.7 8.26224V8.26235V17.2C21.7 18.1813 21.3101 19.1224 20.6162 19.8162C19.9224 20.5101 18.9813 20.9 18 20.9H8.39995C7.41865 20.9 6.47754 20.5101 5.78366 19.8162C5.08977 19.1224 4.69995 18.1813 4.69995 17.2V4.39995C4.69995 3.41865 5.08977 2.47754 5.78366 1.78366C6.47754 1.08977 7.41865 0.699951 8.39995 0.699951H14.1376H14.1377C15.1189 0.700161 16.0598 1.0901 16.7535 1.784L16.7536 1.78405M21.7 8.26224L16.4 2.13755L16.7536 1.78405M21.7 8.26224C21.6997 7.28105 21.3098 6.34012 20.6159 5.6464L21.7 8.26224ZM16.7536 1.78405L20.6159 5.64634L16.7536 1.78405Z" fill="#8181A5" stroke="#FBFBFE"/>
</svg>
