<svg width="22" height="23" viewBox="0 0 22 23" fill="none" xmlns="http://www.w3.org/2000/svg">
<path d="M0 11.5781V2.8125C0 2.23958 0.200521 1.7526 0.601562 1.35156C1.0026 0.950521 1.48958 0.75 2.0625 0.75H10.8281C11.401 0.75 11.888 0.950521 12.2891 1.35156L21.3984 10.4609C21.7995 10.862 22 11.349 22 11.9219C22 12.4948 21.7995 12.9818 21.3984 13.3828L12.6328 22.1484C12.2318 22.5495 11.7448 22.75 11.1719 22.75C10.599 22.75 10.112 22.5495 9.71094 22.1484L0.601562 13.0391C0.200521 12.638 0 12.151 0 11.5781ZM6.27344 4.10156C5.8724 3.70052 5.38542 3.5 4.8125 3.5C4.23958 3.5 3.7526 3.70052 3.35156 4.10156C2.95052 4.5026 2.75 4.98958 2.75 5.5625C2.75 6.13542 2.95052 6.6224 3.35156 7.02344C3.7526 7.42448 4.23958 7.625 4.8125 7.625C5.38542 7.625 5.8724 7.42448 6.27344 7.02344C6.67448 6.6224 6.875 6.13542 6.875 5.5625C6.875 4.98958 6.67448 4.5026 6.27344 4.10156Z" fill="#8181A5"/>
</svg>
