<svg width="21" height="20" viewBox="0 0 21 20" fill="none" xmlns="http://www.w3.org/2000/svg">
<g clip-path="url(#clip0_14495_12342)">
<path fill-rule="evenodd" clip-rule="evenodd" d="M1.97461 2.1875C1.97461 1.93886 1.87584 1.7004 1.70002 1.52459C1.52421 1.34877 1.28575 1.25 1.03711 1.25C0.788469 1.25 0.550012 1.34877 0.374197 1.52459C0.198381 1.7004 0.0996094 1.93886 0.0996094 2.1875L0.0996094 17.8125C0.0996094 18.33 0.519609 18.75 1.03711 18.75H19.1621C19.4107 18.75 19.6492 18.6512 19.825 18.4754C20.0008 18.2996 20.0996 18.0611 20.0996 17.8125C20.0996 17.5639 20.0008 17.3254 19.825 17.1496C19.6492 16.9738 19.4107 16.875 19.1621 16.875H1.97461V2.1875ZM19.8246 5.35C19.9902 5.17228 20.0804 4.93722 20.0761 4.69435C20.0718 4.45147 19.9734 4.21974 19.8016 4.04797C19.6299 3.87621 19.3981 3.77782 19.1553 3.77353C18.9124 3.76925 18.6773 3.8594 18.4996 4.025L12.5996 9.925L9.51211 6.8375C9.33633 6.66194 9.09805 6.56332 8.84961 6.56332C8.60117 6.56332 8.36289 6.66194 8.18711 6.8375L4.12461 10.9C3.95901 11.0777 3.86886 11.3128 3.87314 11.5557C3.87743 11.7985 3.97582 12.0303 4.14758 12.202C4.31935 12.3738 4.55108 12.4722 4.79396 12.4765C5.03683 12.4808 5.27189 12.3906 5.44961 12.225L8.84961 8.825L11.9371 11.9125C12.1129 12.0881 12.3512 12.1867 12.5996 12.1867C12.848 12.1867 13.0863 12.0881 13.2621 11.9125L19.8246 5.35Z" fill="#8181A5"/>
</g>
<defs>
<clipPath id="clip0_14495_12342">
<rect width="20" height="20" fill="white" transform="translate(0.0996094)"/>
</clipPath>
</defs>
</svg>
