<svg width="22" height="22" viewBox="0 0 22 22" fill="none" xmlns="http://www.w3.org/2000/svg">
<path d="M3.5 0.5C2.70435 0.5 1.94129 0.81607 1.37868 1.37868C0.81607 1.94129 0.5 2.70435 0.5 3.5V18.5C0.5 19.2957 0.81607 20.0587 1.37868 20.6213C1.94129 21.1839 2.70435 21.5 3.5 21.5H18.5C19.2956 21.5 20.0587 21.1839 20.6213 20.6213C21.1839 20.0587 21.5 19.2957 21.5 18.5V3.5C21.5 2.70435 21.1839 1.94129 20.6213 1.37868C20.0587 0.81607 19.2956 0.5 18.5 0.5H3.5ZM7.25 6.875C7.25 7.17337 7.13147 7.45952 6.9205 7.6705C6.70952 7.88147 6.42337 8 6.125 8C5.82663 8 5.54048 7.88147 5.3295 7.6705C5.11853 7.45952 5 7.17337 5 6.875C5 6.57663 5.11853 6.29048 5.3295 6.07951C5.54048 5.86853 5.82663 5.75 6.125 5.75C6.42337 5.75 6.70952 5.86853 6.9205 6.07951C7.13147 6.29048 7.25 6.57663 7.25 6.875ZM6.125 12.5C5.82663 12.5 5.54048 12.3815 5.3295 12.1705C5.11853 11.9595 5 11.6734 5 11.375C5 11.0766 5.11853 10.7905 5.3295 10.5795C5.54048 10.3685 5.82663 10.25 6.125 10.25C6.42337 10.25 6.70952 10.3685 6.9205 10.5795C7.13147 10.7905 7.25 11.0766 7.25 11.375C7.25 11.6734 7.13147 11.9595 6.9205 12.1705C6.70952 12.3815 6.42337 12.5 6.125 12.5ZM7.25 15.875C7.25 16.1734 7.13147 16.4595 6.9205 16.6705C6.70952 16.8815 6.42337 17 6.125 17C5.82663 17 5.54048 16.8815 5.3295 16.6705C5.11853 16.4595 5 16.1734 5 15.875C5 15.5766 5.11853 15.2905 5.3295 15.0795C5.54048 14.8685 5.82663 14.75 6.125 14.75C6.42337 14.75 6.70952 14.8685 6.9205 15.0795C7.13147 15.2905 7.25 15.5766 7.25 15.875V15.875ZM10.25 6.5H16.25C16.4489 6.5 16.6397 6.57902 16.7803 6.71967C16.921 6.86032 17 7.05109 17 7.25C17 7.44891 16.921 7.63968 16.7803 7.78033C16.6397 7.92098 16.4489 8 16.25 8H10.25C10.0511 8 9.86032 7.92098 9.71967 7.78033C9.57902 7.63968 9.5 7.44891 9.5 7.25C9.5 7.05109 9.57902 6.86032 9.71967 6.71967C9.86032 6.57902 10.0511 6.5 10.25 6.5ZM9.5 11.75C9.5 11.5511 9.57902 11.3603 9.71967 11.2197C9.86032 11.079 10.0511 11 10.25 11H16.25C16.4489 11 16.6397 11.079 16.7803 11.2197C16.921 11.3603 17 11.5511 17 11.75C17 11.9489 16.921 12.1397 16.7803 12.2803C16.6397 12.421 16.4489 12.5 16.25 12.5H10.25C10.0511 12.5 9.86032 12.421 9.71967 12.2803C9.57902 12.1397 9.5 11.9489 9.5 11.75ZM10.25 15.5H16.25C16.4489 15.5 16.6397 15.579 16.7803 15.7197C16.921 15.8603 17 16.0511 17 16.25C17 16.4489 16.921 16.6397 16.7803 16.7803C16.6397 16.921 16.4489 17 16.25 17H10.25C10.0511 17 9.86032 16.921 9.71967 16.7803C9.57902 16.6397 9.5 16.4489 9.5 16.25C9.5 16.0511 9.57902 15.8603 9.71967 15.7197C9.86032 15.579 10.0511 15.5 10.25 15.5Z" fill="#5E81F4"/>
</svg>
