<svg width="18" height="18" viewBox="0 0 18 18" fill="none" xmlns="http://www.w3.org/2000/svg">
<path d="M15.052 3.09766C16.7629 4.78516 17.6184 6.83594 17.6184 9.25C17.6184 11.6406 16.7629 13.6914 15.052 15.4023C13.3645 17.1133 11.3137 17.9688 8.89961 17.9688C6.83711 17.9688 5.00899 17.3242 3.41524 16.0352C3.22774 15.8711 3.12227 15.6719 3.09883 15.4375C3.09883 15.1797 3.19258 14.957 3.38008 14.7695L3.7668 14.3828C3.90742 14.2422 4.0832 14.1719 4.29414 14.1719C4.52852 14.1484 4.72774 14.1953 4.8918 14.3125C6.06367 15.25 7.39961 15.7188 8.89961 15.7188C10.6809 15.7188 12.2043 15.0859 13.4699 13.8203C14.7355 12.5547 15.3684 11.0312 15.3684 9.25C15.3684 7.46875 14.7355 5.94531 13.4699 4.67969C12.2043 3.41406 10.6809 2.78125 8.89961 2.78125C7.18867 2.78125 5.71211 3.36719 4.46992 4.53906L6.26289 6.33203C6.42695 6.49609 6.46211 6.69531 6.36836 6.92969C6.27461 7.16406 6.09883 7.28125 5.84102 7.28125H0.743361C0.579298 7.28125 0.438673 7.23438 0.321486 7.14062C0.227736 7.02344 0.180861 6.88281 0.180861 6.71875V1.62109C0.180861 1.36328 0.298048 1.1875 0.532423 1.09375C0.766798 1 0.966017 1.03516 1.13008 1.19922L2.88789 2.95703C4.57539 1.33984 6.5793 0.53125 8.89961 0.53125C11.3137 0.53125 13.3645 1.38672 15.052 3.09766ZM11.2551 11.9922C11.1145 12.1797 10.927 12.2969 10.6926 12.3438C10.4582 12.3672 10.2473 12.3086 10.0598 12.168L7.77461 10.375V5.59375C7.77461 5.35937 7.85664 5.16016 8.0207 4.99609C8.18477 4.83203 8.38399 4.75 8.61836 4.75H9.18086C9.41524 4.75 9.61445 4.83203 9.77852 4.99609C9.94258 5.16016 10.0246 5.35937 10.0246 5.59375V9.25L11.466 10.375C11.6535 10.5156 11.759 10.7031 11.7824 10.9375C11.8059 11.1719 11.7473 11.3828 11.6066 11.5703L11.2551 11.9922Z" fill="#8181A5"/>
</svg>
