<svg width="14" height="14" viewBox="0 0 14 14" fill="none" xmlns="http://www.w3.org/2000/svg">
<path d="M7 13C10.3137 13 13 10.3137 13 7C13 3.68633 10.3137 1 7 1C3.68633 1 1 3.68633 1 7C1 10.3137 3.68633 13 7 13Z" fill="#BE1931" stroke="white" stroke-width="2"/>
<path d="M10.8891 7.55534C10.8891 7.70268 10.8306 7.84399 10.7264 7.94818C10.6222 8.05236 10.4809 8.11089 10.3335 8.11089H3.66688C3.51954 8.11089 3.37823 8.05236 3.27405 7.94818C3.16986 7.84399 3.11133 7.70268 3.11133 7.55534V6.44423C3.11133 6.29688 3.16986 6.15558 3.27405 6.05139C3.37823 5.9472 3.51954 5.88867 3.66688 5.88867H10.3335C10.4809 5.88867 10.6222 5.9472 10.7264 6.05139C10.8306 6.15558 10.8891 6.29688 10.8891 6.44423V7.55534Z" fill="white"/>
</svg>
