<svg width="37" height="36" viewBox="0 0 37 36" fill="none" xmlns="http://www.w3.org/2000/svg">
<rect opacity="0.1" width="37" height="36" rx="6" fill="#8181A5"/>
<path d="M19.5 11.5C18.5938 11.5 17.7552 11.7292 16.9844 12.1875C16.224 12.625 15.625 13.224 15.1875 13.9844C14.7292 14.7552 14.5 15.5938 14.5 16.5C14.5 17.0938 14.599 17.6615 14.7969 18.2031C14.9948 18.7344 15.2708 19.2188 15.625 19.6562L11.6406 23.6406L12.3594 24.3594L16.3438 20.375C16.7812 20.7292 17.2656 21.0052 17.7969 21.2031C18.3385 21.401 18.9062 21.5 19.5 21.5C20.4062 21.5 21.2448 21.2708 22.0156 20.8125C22.776 20.375 23.375 19.776 23.8125 19.0156C24.2708 18.2448 24.5 17.4062 24.5 16.5C24.5 15.5938 24.2708 14.7552 23.8125 13.9844C23.375 13.224 22.776 12.625 22.0156 12.1875C21.2448 11.7292 20.4062 11.5 19.5 11.5ZM19.5 12.5C20.2292 12.5 20.8958 12.6823 21.5 13.0469C22.1146 13.401 22.599 13.8854 22.9531 14.5C23.3177 15.1042 23.5 15.7708 23.5 16.5C23.5 17.2292 23.3177 17.901 22.9531 18.5156C22.599 19.1198 22.1146 19.6042 21.5 19.9688C20.8958 20.3229 20.2292 20.5 19.5 20.5C18.7708 20.5 18.099 20.3229 17.4844 19.9688C16.8802 19.6042 16.3958 19.1198 16.0312 18.5156C15.6771 17.901 15.5 17.2292 15.5 16.5C15.5 15.7708 15.6771 15.1042 16.0312 14.5C16.3958 13.8854 16.8802 13.401 17.4844 13.0469C18.099 12.6823 18.7708 12.5 19.5 12.5Z" fill="#8181A5"/>
</svg>
