<svg width="24" height="24" viewBox="0 0 24 24" fill="none" xmlns="http://www.w3.org/2000/svg">
<path d="M18.2398 2.66675H3.99984C3.64622 2.66675 3.30708 2.80722 3.05703 3.05727C2.80698 3.30732 2.6665 3.64646 2.6665 4.00008V20.0001C2.6665 20.3537 2.80698 20.6928 3.05703 20.9429C3.30708 21.1929 3.64622 21.3334 3.99984 21.3334H19.9998C20.3535 21.3334 20.6926 21.1929 20.9426 20.9429C21.1927 20.6928 21.3332 20.3537 21.3332 20.0001V5.85341L18.2398 2.66675ZM17.3332 20.0001H6.6665V14.3334C6.6665 14.0682 6.77186 13.8138 6.9594 13.6263C7.14693 13.4388 7.40129 13.3334 7.6665 13.3334H16.3332C16.5984 13.3334 16.8527 13.4388 17.0403 13.6263C17.2278 13.8138 17.3332 14.0682 17.3332 14.3334V20.0001ZM15.9998 9.33342H7.99984C7.64622 9.33342 7.30708 9.19294 7.05703 8.94289C6.80698 8.69284 6.6665 8.3537 6.6665 8.00008V4.00008H7.99984V8.00008H17.3332C17.3332 8.3537 17.1927 8.69284 16.9426 8.94289C16.6926 9.19294 16.3535 9.33342 15.9998 9.33342Z" fill="#8181A5"/>
</svg>
