<svg width="22" height="22" viewBox="0 0 22 22" fill="none" xmlns="http://www.w3.org/2000/svg">
<path d="M3.53325 21.6666C2.64436 21.6666 1.88881 21.3555 1.26658 20.7332C0.644363 20.111 0.333252 19.3555 0.333252 18.4666V16.8999C0.333252 16.0555 0.63903 15.2719 1.25059 14.5492C1.86125 13.8275 2.66658 13.2052 3.66658 12.6826C4.66658 12.1608 5.79458 11.7497 7.05058 11.4492C8.30569 11.1497 9.57769 10.9999 10.8666 10.9999C12.1555 10.9999 13.4444 11.1497 14.7332 11.4492C16.0221 11.7497 17.1777 12.1666 18.1999 12.6999C19.2221 13.2332 20.0555 13.8612 20.6999 14.5839C21.3444 15.3057 21.6666 16.0888 21.6666 16.9332V18.4666C21.6666 19.3555 21.3555 20.111 20.7332 20.7332C20.111 21.3555 19.3555 21.6666 18.4666 21.6666H3.53325ZM10.8666 9.66658C9.57769 9.66658 8.47769 9.21103 7.56658 8.29992C6.65547 7.38881 6.19992 6.28881 6.19992 4.99992C6.19992 3.71103 6.65547 2.61103 7.56658 1.69992C8.47769 0.788808 9.57769 0.333252 10.8666 0.333252C12.1777 0.333252 13.283 0.788808 14.1826 1.69992C15.083 2.61103 15.5332 3.71103 15.5332 4.99992C15.5332 6.28881 15.0777 7.38881 14.1666 8.29992C13.2555 9.21103 12.1555 9.66658 10.8666 9.66658Z" fill="#8181A5"/>
</svg>
